<?xml version="1.0" encoding="utf-8"?>
<!-- Generator: Adobe Illustrator 26.0.1, SVG Export Plug-In . SVG Version: 6.00 Build 0)  -->
<svg version="1.1" id="Layer_1" xmlns="http://www.w3.org/2000/svg" xmlns:xlink="http://www.w3.org/1999/xlink" x="0px" y="0px"
	 viewBox="0 0 48 48" style="enable-background:new 0 0 48 48;" xml:space="preserve">
<style type="text/css">
	.st0{fill:#161616;}
	.st1{fill:#0EE6E6;}
	.st2{fill:#FFFFFF;}
</style>
<path class="st0" d="M0,0h48v48H0V0z"/>
<path class="st1" d="M36.4,35.4c0.6,0,1-0.2,1.4-0.6c0.4-0.4,0.6-0.9,0.6-1.4c0-0.6-0.2-1-0.6-1.4c-0.4-0.4-0.9-0.6-1.4-0.6
	c-0.6,0-1,0.2-1.4,0.6c-0.4,0.4-0.6,0.9-0.6,1.4c0,0.6,0.2,1,0.6,1.4C35.4,35.2,35.9,35.4,36.4,35.4z"/>
<g>
	<path class="st2" d="M25.5,16c2.8,0,5.2,0.9,7,2.7c1.8,1.8,2.8,4.2,2.8,7c0,2.8-0.9,5.2-2.8,7c-1.9,1.8-4.2,2.7-7,2.7
		c-2.5,0-4.7-0.7-6.4-2.2c-1.8-1.4-2.8-3.3-3.3-5.7h-1.5c-0.4,0-0.6,0-0.7-0.1l-0.1,0.1c0.1,0.1,0.1,0.4,0.1,0.8V35H9.5V16.4h4.1
		v6.8c0,0.4,0,0.7-0.1,0.8l0.1,0.1c0.1-0.1,0.4-0.1,0.7-0.1h1.5c0.4-2.3,1.5-4.3,3.2-5.7C20.9,16.7,23,16,25.5,16z M25.5,31.4
		c1.7,0,3-0.5,4-1.6c1-1.1,1.5-2.4,1.5-4.1c0-1.7-0.5-3.1-1.5-4.1c-1-1.1-2.4-1.6-4-1.6c-1.7,0-3,0.5-4.1,1.6
		c-1,1.1-1.5,2.4-1.5,4.1c0,1.7,0.5,3.1,1.5,4.1C22.5,30.9,23.9,31.4,25.5,31.4z"/>
</g>
</svg>
