<?xml version="1.0" encoding="utf-8"?>
<!-- Generator: Adobe Illustrator 26.0.1, SVG Export Plug-In . SVG Version: 6.00 Build 0)  -->
<svg version="1.1" id="Layer_1" xmlns="http://www.w3.org/2000/svg" xmlns:xlink="http://www.w3.org/1999/xlink" x="0px" y="0px"
	 viewBox="0 0 90 23" style="enable-background:new 0 0 90 23;" xml:space="preserve">
<style type="text/css">
	.st0{fill:#0EE6E6;}
	.st1{fill:#FFFFFF;}
</style>
<path class="st0" d="M88.6,21.7c-0.4,0.4-1,0.7-1.6,0.7c-0.6,0-1.2-0.2-1.6-0.7c-0.4-0.4-0.7-1-0.7-1.6s0.2-1.1,0.6-1.6
	c0.4-0.4,1-0.7,1.6-0.7c0.6,0,1.2,0.2,1.6,0.7c0.4,0.4,0.7,1,0.7,1.6S89.1,21.3,88.6,21.7z"/>
<g>
	<path class="st1" d="M15.9,5.7c2.1,0,3.9,0.7,5.3,2.1c1.4,1.4,2.1,3.1,2.1,5.3c0,2.1-0.7,3.9-2.1,5.3c-1.4,1.4-3.2,2.1-5.3,2.1
		c-1.9,0-3.5-0.5-4.8-1.6c-1.3-1.1-2.1-2.5-2.5-4.3H7.4c-0.3,0-0.5,0-0.6-0.1l0,0c0.1,0.1,0.1,0.3,0.1,0.6v5H3.8V6h3.1v5.1
		c0,0.3,0,0.5-0.1,0.6l0,0c0.1-0.1,0.3-0.1,0.6-0.1h1.2C8.9,9.9,9.7,8.5,11,7.4C12.3,6.3,14,5.7,15.9,5.7z M15.9,17.4
		c1.2,0,2.3-0.4,3-1.2c0.8-0.8,1.2-1.8,1.2-3.1c0-1.3-0.4-2.3-1.2-3.1c-0.8-0.8-1.8-1.2-3-1.2c-1.3,0-2.3,0.4-3.1,1.2
		c-0.8,0.8-1.2,1.8-1.2,3.1c0,1.3,0.4,2.3,1.2,3.1C13.6,17,14.6,17.4,15.9,17.4z"/>
	<path class="st1" d="M31.1,20.4c-0.8,0-1.5-0.2-2.1-0.6c-0.6-0.4-1-1-1.3-1.8l-0.1,0c0.1,0.6,0.2,1.3,0.2,2.1h-3V5.7h3v4.5
		c0,1.1-0.1,2-0.3,2.7l0.1,0c0.7-1.6,1.8-2.4,3.4-2.4c1.3,0,2.3,0.5,3.1,1.4c0.8,0.9,1.2,2.1,1.2,3.6s-0.4,2.7-1.2,3.6
		C33.4,20,32.4,20.4,31.1,20.4z M28.3,17.1c0.4,0.4,1,0.6,1.7,0.6s1.2-0.2,1.7-0.6c0.4-0.4,0.6-0.9,0.6-1.6c0-0.7-0.2-1.2-0.6-1.6
		c-0.4-0.4-1-0.6-1.6-0.6c-0.7,0-1.2,0.2-1.7,0.6c-0.4,0.4-0.6,0.9-0.6,1.6C27.7,16.1,27.9,16.7,28.3,17.1z"/>
	<path class="st1" d="M38.4,5.8c0.5,0,1,0.2,1.4,0.5c0.4,0.4,0.5,0.8,0.5,1.4c0,0.6-0.2,1-0.5,1.4S39,9.6,38.4,9.6
		c-0.6,0-1-0.2-1.4-0.5c-0.3-0.3-0.5-0.8-0.5-1.4c0-0.5,0.2-1,0.5-1.4C37.4,6,37.8,5.8,38.4,5.8z M39.9,10.8v9.3h-3v-9.3H39.9z"/>
	<path class="st1" d="M45,5.7v14.4h-3V5.7H45z"/>
	<path class="st1" d="M51.8,10.5c1.5,0,2.8,0.5,3.7,1.4c1,0.9,1.5,2.1,1.5,3.6c0,1.5-0.5,2.7-1.5,3.6c-1,0.9-2.2,1.4-3.7,1.4
		C50.3,20.4,49,20,48,19c-1-0.9-1.5-2.1-1.5-3.6c0-1.5,0.5-2.7,1.5-3.6C49,11,50.3,10.5,51.8,10.5z M53.4,13.9
		c-0.4-0.4-0.9-0.6-1.6-0.6c-0.6,0-1.2,0.2-1.6,0.6s-0.6,0.9-0.6,1.6c0,0.7,0.2,1.2,0.6,1.6c0.4,0.4,0.9,0.6,1.6,0.6
		c0.6,0,1.1-0.2,1.6-0.6c0.4-0.4,0.6-0.9,0.6-1.6C54,14.8,53.8,14.3,53.4,13.9z"/>
	<path class="st1" d="M64.8,20.4c-0.8,0-1.5-0.2-2.1-0.6c-0.6-0.4-1-1-1.3-1.8l-0.1,0c0.1,0.6,0.2,1.3,0.2,2.1h-3V5.7h3v4.5
		c0,1.1-0.1,2-0.3,2.7l0.1,0c0.7-1.6,1.8-2.4,3.4-2.4c1.3,0,2.3,0.5,3.1,1.4c0.8,0.9,1.2,2.1,1.2,3.6s-0.4,2.7-1.2,3.6
		S66.1,20.4,64.8,20.4z M62.1,17.1c0.4,0.4,1,0.6,1.7,0.6c0.7,0,1.2-0.2,1.7-0.6c0.4-0.4,0.6-0.9,0.6-1.6c0-0.7-0.2-1.2-0.6-1.6
		c-0.4-0.4-1-0.6-1.6-0.6c-0.7,0-1.2,0.2-1.7,0.6c-0.4,0.4-0.6,0.9-0.6,1.6C61.4,16.1,61.6,16.7,62.1,17.1z"/>
	<path class="st1" d="M74.8,10.5c1.6,0,2.7,0.3,3.4,0.9c0.7,0.6,1,1.5,1,2.8v5.9h-3c0-0.7,0.1-1.3,0.3-1.8l-0.1-0.1
		c-0.6,1.5-1.7,2.2-3.3,2.2c-1,0-1.8-0.3-2.4-0.9c-0.6-0.6-0.9-1.4-0.9-2.4c0-1,0.3-1.7,0.9-2.3c0.6-0.6,1.4-0.9,2.4-0.9
		c1.4,0,2.5,0.6,3.2,1.7l0.1,0c-0.1-0.3-0.2-0.8-0.2-1.5c0-0.4-0.2-0.7-0.5-0.9C75.5,13.1,75,13,74.4,13c-0.8,0-1.7,0.1-2.8,0.3
		l-0.4-2.4C72.4,10.6,73.6,10.5,74.8,10.5z M75.4,16.1c-0.2-0.2-0.6-0.3-0.9-0.3c-0.4,0-0.7,0.1-0.9,0.3s-0.4,0.5-0.4,0.9
		s0.1,0.6,0.4,0.9c0.2,0.2,0.5,0.3,0.9,0.3c0.4,0,0.7-0.1,0.9-0.3c0.2-0.2,0.4-0.5,0.4-0.9S75.6,16.3,75.4,16.1z"/>
</g>
</svg>
