<svg width="297" height="70" viewBox="0 0 297 70" fill="none" xmlns="http://www.w3.org/2000/svg">
<path fill-rule="evenodd" clip-rule="evenodd" d="M30 8C13.4245 8 0 21.4245 0 38V38C0 54.5755 13.4245 68 30 68V68C46.5755 68 60 54.5755 60 38V8H30ZM49.7425 37.1137C49.7425 47.5185 41.3071 55.954 30.9023 55.954V55.954C20.4975 55.954 12.062 47.5185 12.062 37.1137V37.1137C12.062 26.7089 20.4975 18.2735 30.9023 18.2735H49.7425V37.1137Z" fill="white"/>
<path d="M78.76 22.52C76.68 22.52 75.16 22.14 74.2 21.38C73.28 20.58 72.82 19.34 72.82 17.66C72.82 15.94 73.28 14.7 74.2 13.94C75.16 13.14 76.68 12.74 78.76 12.74C80.8 12.74 82.3 13.14 83.26 13.94C84.22 14.7 84.7 15.94 84.7 17.66C84.7 19.34 84.22 20.58 83.26 21.38C82.3 22.14 80.8 22.52 78.76 22.52ZM83.86 26V56H73.66V26H83.86ZM110.381 56.6C108.421 56.6 106.681 56.16 105.161 55.28C103.681 54.4 102.461 53.2 101.501 51.68C100.541 50.12 99.9209 48.36 99.6409 46.4L100.601 45.14L100.061 56H91.1209V13.28H101.321V35.42L100.361 33.98C100.921 31.5 102.061 29.46 103.781 27.86C105.501 26.22 107.821 25.4 110.741 25.4C113.061 25.4 115.121 26.02 116.921 27.26C118.761 28.5 120.181 30.3 121.181 32.66C122.221 34.98 122.741 37.8 122.741 41.12C122.741 44.36 122.221 47.14 121.181 49.46C120.141 51.78 118.701 53.56 116.861 54.8C115.021 56 112.861 56.6 110.381 56.6ZM106.841 49.1C108.601 49.1 109.981 48.46 110.981 47.18C111.981 45.86 112.481 43.8 112.481 41C112.481 38.2 111.981 36.16 110.981 34.88C109.981 33.56 108.601 32.9 106.841 32.9C105.681 32.9 104.681 33.24 103.841 33.92C103.041 34.56 102.421 35.48 101.981 36.68C101.541 37.88 101.321 39.34 101.321 41.06C101.321 42.78 101.541 44.24 101.981 45.44C102.421 46.64 103.061 47.56 103.901 48.2C104.741 48.8 105.721 49.1 106.841 49.1ZM128.738 56V26H137.738L138.158 32.48C138.918 30.24 140.038 28.5 141.518 27.26C143.038 26.02 144.958 25.4 147.278 25.4C148.038 25.4 148.678 25.46 149.198 25.58C149.758 25.7 150.198 25.86 150.518 26.06L149.498 34.46C149.098 34.3 148.578 34.18 147.938 34.1C147.338 33.98 146.598 33.92 145.718 33.92C144.518 33.92 143.398 34.18 142.358 34.7C141.318 35.22 140.478 36 139.838 37.04C139.238 38.04 138.938 39.32 138.938 40.88V56H128.738ZM170.966 36.98C170.966 35.58 170.566 34.48 169.766 33.68C169.006 32.84 167.966 32.42 166.646 32.42C165.326 32.42 164.186 32.76 163.226 33.44C162.306 34.08 161.666 35.24 161.306 36.92L152.666 34.88C153.226 32 154.706 29.7 157.106 27.98C159.506 26.26 162.886 25.4 167.246 25.4C170.166 25.4 172.646 25.84 174.686 26.72C176.766 27.56 178.346 28.84 179.426 30.56C180.546 32.24 181.106 34.32 181.106 36.8V47.78C181.106 49.34 181.806 50.12 183.206 50.12C183.926 50.12 184.506 50.04 184.946 49.88L184.346 55.7C183.146 56.26 181.686 56.54 179.966 56.54C178.406 56.54 177.026 56.3 175.826 55.82C174.626 55.3 173.686 54.54 173.006 53.54C172.326 52.5 171.986 51.2 171.986 49.64V49.28L173.126 48.86C173.126 50.58 172.606 52.02 171.566 53.18C170.566 54.34 169.246 55.2 167.606 55.76C166.006 56.32 164.326 56.6 162.566 56.6C160.526 56.6 158.746 56.28 157.226 55.64C155.706 55 154.526 54.08 153.686 52.88C152.886 51.64 152.486 50.12 152.486 48.32C152.486 46.16 153.126 44.38 154.406 42.98C155.726 41.54 157.786 40.54 160.586 39.98L171.926 37.64L171.866 43.04L166.106 44.24C164.906 44.48 164.006 44.84 163.406 45.32C162.846 45.76 162.566 46.44 162.566 47.36C162.566 48.24 162.886 48.9 163.526 49.34C164.166 49.78 164.926 50 165.806 50C166.486 50 167.126 49.9 167.726 49.7C168.366 49.5 168.926 49.2 169.406 48.8C169.886 48.36 170.266 47.82 170.546 47.18C170.826 46.54 170.966 45.78 170.966 44.9V36.98ZM188.973 56V13.28H199.173V31.46C200.053 29.46 201.313 27.96 202.952 26.96C204.593 25.92 206.493 25.4 208.653 25.4C210.733 25.4 212.533 25.8 214.053 26.6C215.613 27.4 216.833 28.58 217.713 30.14C218.593 31.7 219.033 33.66 219.033 36.02V56H208.833V38.84C208.833 36.68 208.433 35.2 207.633 34.4C206.873 33.56 205.853 33.14 204.573 33.14C203.613 33.14 202.713 33.38 201.873 33.86C201.033 34.34 200.373 35.1 199.893 36.14C199.413 37.18 199.173 38.54 199.173 40.22V56H188.973ZM231.28 22.52C229.2 22.52 227.68 22.14 226.72 21.38C225.8 20.58 225.34 19.34 225.34 17.66C225.34 15.94 225.8 14.7 226.72 13.94C227.68 13.14 229.2 12.74 231.28 12.74C233.32 12.74 234.82 13.14 235.78 13.94C236.74 14.7 237.22 15.94 237.22 17.66C237.22 19.34 236.74 20.58 235.78 21.38C234.82 22.14 233.32 22.52 231.28 22.52ZM236.38 26V56H226.18V26H236.38ZM243.64 56V26H252.76L253.06 31.82C254.02 29.7 255.36 28.1 257.08 27.02C258.84 25.94 260.86 25.4 263.14 25.4C265.38 25.4 267.32 25.9 268.96 26.9C270.6 27.9 271.82 29.38 272.62 31.34C273.26 30.02 274.08 28.92 275.08 28.04C276.12 27.16 277.3 26.5 278.62 26.06C279.94 25.62 281.3 25.4 282.7 25.4C284.7 25.4 286.46 25.8 287.98 26.6C289.5 27.36 290.7 28.54 291.58 30.14C292.5 31.7 292.96 33.66 292.96 36.02V56H282.76V38.36C282.76 36.44 282.38 35.1 281.62 34.34C280.9 33.58 279.92 33.2 278.68 33.2C277.68 33.2 276.76 33.46 275.92 33.98C275.12 34.46 274.5 35.2 274.06 36.2C273.62 37.2 273.4 38.46 273.4 39.98V56H263.2V38.36C263.2 36.44 262.82 35.1 262.06 34.34C261.3 33.58 260.32 33.2 259.12 33.2C258.2 33.2 257.32 33.44 256.48 33.92C255.68 34.4 255.04 35.16 254.56 36.2C254.08 37.2 253.84 38.52 253.84 40.16V56H243.64Z" fill="white"/>
<circle cx="164" cy="65" r="3" fill="white"/>
<circle cx="178" cy="65" r="3" fill="white"/>
</svg>
